<svg width="3304" height="1940" viewBox="0 0 3304 1940" fill="none" xmlns="http://www.w3.org/2000/svg">
<rect x="0.912598" y="1.64038" width="3302.09" height="1938" fill="#191930"/>
<path fill-rule="evenodd" clip-rule="evenodd" d="M0.666016 489.869V1939.64H3302.76V825.766C3116.39 1069.02 2794.74 1366.45 2304.19 1440.05C1819.62 1512.76 1254.04 1179.44 738.988 875.894C473.441 719.395 221.325 570.81 0.666016 489.869Z" fill="#281F5E"/>
<path d="M2085.29 1.29004C2085.29 1.29004 2165.24 194.681 2305.13 246.219C2445.02 297.757 2631.92 180.791 2768.97 246.219C2906.03 311.647 3000.5 515.222 3302.76 478.139" stroke="#39258E" stroke-width="6"/>
<path d="M0.912616 863.852C0.912616 863.852 151.729 867.724 230.731 952.802C309.732 1037.88 279.347 1098.65 358.348 1232.35C437.349 1366.04 621.399 1233.6 747.553 1310.92C873.706 1388.24 784.453 1392.12 948.533 1513.66C1112.61 1635.2 1331.39 1428.58 1592.7 1513.66C1854.01 1598.74 2036.32 1744.59 2036.32 1744.59" stroke="#39258E" stroke-width="9"/>
</svg>
